# xmcd CD database file
# Copyright (C) 1993-1998 Ti Kan
#
# Track frame offsets:
#	175
#	16557
#	27585
#	46117
#	59070
#	69665
#	95562
#	110500
#	125137
#	147242
#	157135
#	177582
#
# Disc length: 2524 seconds
#
# Revision: 2
# Processed by: cddbd v1.4b41PL1 Copyright (c) Steve Scherf et al.
# Submitted via: NotifyCDPlayer(CDDB) 1.50
#
DISCID=b109da0c
DTITLE=Anson Funderburgh and The Rockets (Featuring Sam Myers) - Sins
DYEAR=1900
DGENRE=
TTITLE0=A Man Needs His Loving
TTITLE1=I'll Be True
TTITLE2=Don't  Want No Leftovers
TTITLE3=Walked All Night
TTITLE4=My Kind Of Baby
TTITLE5=Changing Neighborhoods
TTITLE6=Can't  Stop  Loving
TTITLE7=Chill Out
TTITLE8=My Heart
TTITLE9=Trying To Make You Mine
TTITLE10=Sleeping In The Ground
TTITLE11=Hard Hearted Woman
EXTD=
EXTT0=
EXTT1=
EXTT2=
EXTT3=
EXTT4=
EXTT5=
EXTT6=
EXTT7=
EXTT8=
EXTT9=
EXTT10=
EXTT11=
PLAYORDER=
